<svg class="rich-terminal" viewBox="0 0 1848 1123.6" xmlns="http://www.w3.org/2000/svg">
    <!-- Generated with Rich https://www.textualize.io -->
    <style>

    @font-face {
        font-family: "Fira Code";
        src: local("FiraCode-Regular"),
                url("https://cdnjs.cloudflare.com/ajax/libs/firacode/6.2.0/woff2/FiraCode-Regular.woff2") format("woff2"),
                url("https://cdnjs.cloudflare.com/ajax/libs/firacode/6.2.0/woff/FiraCode-Regular.woff") format("woff");
        font-style: normal;
        font-weight: 400;
    }
    @font-face {
        font-family: "Fira Code";
        src: local("FiraCode-Bold"),
                url("https://cdnjs.cloudflare.com/ajax/libs/firacode/6.2.0/woff2/FiraCode-Bold.woff2") format("woff2"),
                url("https://cdnjs.cloudflare.com/ajax/libs/firacode/6.2.0/woff/FiraCode-Bold.woff") format("woff");
        font-style: bold;
        font-weight: 700;
    }

    .terminal-1632591726-matrix {
        font-family: Fira Code, monospace;
        font-size: 20px;
        line-height: 24.4px;
        font-variant-east-asian: full-width;
    }

    .terminal-1632591726-title {
        font-size: 18px;
        font-weight: bold;
        font-family: arial;
    }

    .terminal-1632591726-r1 { fill: #c5c8c6 }
.terminal-1632591726-r2 { fill: #ffaf5f }
.terminal-1632591726-r3 { fill: #ffaf5f;font-weight: bold }
.terminal-1632591726-r4 { fill: #dadada }
.terminal-1632591726-r5 { fill: #8a8a8a }
.terminal-1632591726-r6 { fill: #eeeeee;font-weight: bold }
.terminal-1632591726-r7 { fill: #87afff }
.terminal-1632591726-r8 { fill: #4e4e4e }
    </style>

    <defs>
    <clipPath id="terminal-1632591726-clip-terminal">
      <rect x="0" y="0" width="1829.0" height="1072.6" />
    </clipPath>
    <clipPath id="terminal-1632591726-line-0">
    <rect x="0" y="1.5" width="1830" height="24.65"/>
            </clipPath>
<clipPath id="terminal-1632591726-line-1">
    <rect x="0" y="25.9" width="1830" height="24.65"/>
            </clipPath>
<clipPath id="terminal-1632591726-line-2">
    <rect x="0" y="50.3" width="1830" height="24.65"/>
            </clipPath>
<clipPath id="terminal-1632591726-line-3">
    <rect x="0" y="74.7" width="1830" height="24.65"/>
            </clipPath>
<clipPath id="terminal-1632591726-line-4">
    <rect x="0" y="99.1" width="1830" height="24.65"/>
            </clipPath>
<clipPath id="terminal-1632591726-line-5">
    <rect x="0" y="123.5" width="1830" height="24.65"/>
            </clipPath>
<clipPath id="terminal-1632591726-line-6">
    <rect x="0" y="147.9" width="1830" height="24.65"/>
            </clipPath>
<clipPath id="terminal-1632591726-line-7">
    <rect x="0" y="172.3" width="1830" height="24.65"/>
            </clipPath>
<clipPath id="terminal-1632591726-line-8">
    <rect x="0" y="196.7" width="1830" height="24.65"/>
            </clipPath>
<clipPath id="terminal-1632591726-line-9">
    <rect x="0" y="221.1" width="1830" height="24.65"/>
            </clipPath>
<clipPath id="terminal-1632591726-line-10">
    <rect x="0" y="245.5" width="1830" height="24.65"/>
            </clipPath>
<clipPath id="terminal-1632591726-line-11">
    <rect x="0" y="269.9" width="1830" height="24.65"/>
            </clipPath>
<clipPath id="terminal-1632591726-line-12">
    <rect x="0" y="294.3" width="1830" height="24.65"/>
            </clipPath>
<clipPath id="terminal-1632591726-line-13">
    <rect x="0" y="318.7" width="1830" height="24.65"/>
            </clipPath>
<clipPath id="terminal-1632591726-line-14">
    <rect x="0" y="343.1" width="1830" height="24.65"/>
            </clipPath>
<clipPath id="terminal-1632591726-line-15">
    <rect x="0" y="367.5" width="1830" height="24.65"/>
            </clipPath>
<clipPath id="terminal-1632591726-line-16">
    <rect x="0" y="391.9" width="1830" height="24.65"/>
            </clipPath>
<clipPath id="terminal-1632591726-line-17">
    <rect x="0" y="416.3" width="1830" height="24.65"/>
            </clipPath>
<clipPath id="terminal-1632591726-line-18">
    <rect x="0" y="440.7" width="1830" height="24.65"/>
            </clipPath>
<clipPath id="terminal-1632591726-line-19">
    <rect x="0" y="465.1" width="1830" height="24.65"/>
            </clipPath>
<clipPath id="terminal-1632591726-line-20">
    <rect x="0" y="489.5" width="1830" height="24.65"/>
            </clipPath>
<clipPath id="terminal-1632591726-line-21">
    <rect x="0" y="513.9" width="1830" height="24.65"/>
            </clipPath>
<clipPath id="terminal-1632591726-line-22">
    <rect x="0" y="538.3" width="1830" height="24.65"/>
            </clipPath>
<clipPath id="terminal-1632591726-line-23">
    <rect x="0" y="562.7" width="1830" height="24.65"/>
            </clipPath>
<clipPath id="terminal-1632591726-line-24">
    <rect x="0" y="587.1" width="1830" height="24.65"/>
            </clipPath>
<clipPath id="terminal-1632591726-line-25">
    <rect x="0" y="611.5" width="1830" height="24.65"/>
            </clipPath>
<clipPath id="terminal-1632591726-line-26">
    <rect x="0" y="635.9" width="1830" height="24.65"/>
            </clipPath>
<clipPath id="terminal-1632591726-line-27">
    <rect x="0" y="660.3" width="1830" height="24.65"/>
            </clipPath>
<clipPath id="terminal-1632591726-line-28">
    <rect x="0" y="684.7" width="1830" height="24.65"/>
            </clipPath>
<clipPath id="terminal-1632591726-line-29">
    <rect x="0" y="709.1" width="1830" height="24.65"/>
            </clipPath>
<clipPath id="terminal-1632591726-line-30">
    <rect x="0" y="733.5" width="1830" height="24.65"/>
            </clipPath>
<clipPath id="terminal-1632591726-line-31">
    <rect x="0" y="757.9" width="1830" height="24.65"/>
            </clipPath>
<clipPath id="terminal-1632591726-line-32">
    <rect x="0" y="782.3" width="1830" height="24.65"/>
            </clipPath>
<clipPath id="terminal-1632591726-line-33">
    <rect x="0" y="806.7" width="1830" height="24.65"/>
            </clipPath>
<clipPath id="terminal-1632591726-line-34">
    <rect x="0" y="831.1" width="1830" height="24.65"/>
            </clipPath>
<clipPath id="terminal-1632591726-line-35">
    <rect x="0" y="855.5" width="1830" height="24.65"/>
            </clipPath>
<clipPath id="terminal-1632591726-line-36">
    <rect x="0" y="879.9" width="1830" height="24.65"/>
            </clipPath>
<clipPath id="terminal-1632591726-line-37">
    <rect x="0" y="904.3" width="1830" height="24.65"/>
            </clipPath>
<clipPath id="terminal-1632591726-line-38">
    <rect x="0" y="928.7" width="1830" height="24.65"/>
            </clipPath>
<clipPath id="terminal-1632591726-line-39">
    <rect x="0" y="953.1" width="1830" height="24.65"/>
            </clipPath>
<clipPath id="terminal-1632591726-line-40">
    <rect x="0" y="977.5" width="1830" height="24.65"/>
            </clipPath>
<clipPath id="terminal-1632591726-line-41">
    <rect x="0" y="1001.9" width="1830" height="24.65"/>
            </clipPath>
<clipPath id="terminal-1632591726-line-42">
    <rect x="0" y="1026.3" width="1830" height="24.65"/>
            </clipPath>
    </defs>

    <rect fill="#292929" stroke="rgba(255,255,255,0.35)" stroke-width="1" x="1" y="1" width="1846" height="1121.6" rx="8"/><text class="terminal-1632591726-title" fill="#c5c8c6" text-anchor="middle" x="923" y="27">NEX&#160;CLI&#160;—&#160;РАЗБОР&#160;(ДИАГНОЗ)</text>
            <g transform="translate(26,22)">
            <circle cx="0" cy="0" r="7" fill="#ff5f57"/>
            <circle cx="22" cy="0" r="7" fill="#febc2e"/>
            <circle cx="44" cy="0" r="7" fill="#28c840"/>
            </g>
        
    <g transform="translate(9, 41)" clip-path="url(#terminal-1632591726-clip-terminal)">
    <rect fill="#080a10" x="0" y="1.5" width="24.4" height="24.65" shape-rendering="crispEdges"/><rect fill="#080a10" x="24.4" y="1.5" width="24.4" height="24.65" shape-rendering="crispEdges"/><rect fill="#080a10" x="48.8" y="1.5" width="36.6" height="24.65" shape-rendering="crispEdges"/><rect fill="#080a10" x="85.4" y="1.5" width="36.6" height="24.65" shape-rendering="crispEdges"/><rect fill="#080a10" x="122" y="1.5" width="73.2" height="24.65" shape-rendering="crispEdges"/><rect fill="#080a10" x="195.2" y="1.5" width="36.6" height="24.65" shape-rendering="crispEdges"/><rect fill="#080a10" x="231.8" y="1.5" width="146.4" height="24.65" shape-rendering="crispEdges"/><rect fill="#080a10" x="378.2" y="1.5" width="73.2" height="24.65" shape-rendering="crispEdges"/><rect fill="#080a10" x="451.4" y="1.5" width="780.8" height="24.65" shape-rendering="crispEdges"/><rect fill="#080a10" x="1232.2" y="1.5" width="573.4" height="24.65" shape-rendering="crispEdges"/><rect fill="#080a10" x="1805.6" y="1.5" width="24.4" height="24.65" shape-rendering="crispEdges"/><rect fill="#171b26" x="0" y="25.9" width="12.2" height="24.65" shape-rendering="crispEdges"/><rect fill="#171b26" x="12.2" y="25.9" width="85.4" height="24.65" shape-rendering="crispEdges"/><rect fill="#171b26" x="97.6" y="25.9" width="1720.2" height="24.65" shape-rendering="crispEdges"/><rect fill="#171b26" x="1817.8" y="25.9" width="12.2" height="24.65" shape-rendering="crispEdges"/><rect fill="#0d0f15" x="0" y="50.3" width="12.2" height="24.65" shape-rendering="crispEdges"/><rect fill="#222839" x="12.2" y="50.3" width="12.2" height="24.65" shape-rendering="crispEdges"/><rect fill="#222839" x="24.4" y="50.3" width="85.4" height="24.65" shape-rendering="crispEdges"/><rect fill="#222839" x="109.8" y="50.3" width="12.2" height="24.65" shape-rendering="crispEdges"/><rect fill="#222839" x="122" y="50.3" width="12.2" height="24.65" shape-rendering="crispEdges"/><rect fill="#222839" x="134.2" y="50.3" width="85.4" height="24.65" shape-rendering="crispEdges"/><rect fill="#222839" x="219.6" y="50.3" width="12.2" height="24.65" shape-rendering="crispEdges"/><rect fill="#222839" x="231.8" y="50.3" width="12.2" height="24.65" shape-rendering="crispEdges"/><rect fill="#222839" x="244" y="50.3" width="158.6" height="24.65" shape-rendering="crispEdges"/><rect fill="#222839" x="402.6" y="50.3" width="12.2" height="24.65" shape-rendering="crispEdges"/><rect fill="#222839" x="414.8" y="50.3" width="12.2" height="24.65" shape-rendering="crispEdges"/><rect fill="#222839" x="427" y="50.3" width="109.8" height="24.65" shape-rendering="crispEdges"/><rect fill="#222839" x="536.8" y="50.3" width="12.2" height="24.65" shape-rendering="crispEdges"/><rect fill="#0d0f15" x="549" y="50.3" width="1281" height="24.65" shape-rendering="crispEdges"/><rect fill="#0d0f15" x="0" y="74.7" width="12.2" height="24.65" shape-rendering="crispEdges"/><rect fill="#553f2b" x="12.2" y="74.7" width="12.2" height="24.65" shape-rendering="crispEdges"/><rect fill="#553f2b" x="24.4" y="74.7" width="61" height="24.65" shape-rendering="crispEdges"/><rect fill="#553f2b" x="85.4" y="74.7" width="12.2" height="24.65" shape-rendering="crispEdges"/><rect fill="#0d0f15" x="97.6" y="74.7" width="12.2" height="24.65" shape-rendering="crispEdges"/><rect fill="#222839" x="109.8" y="74.7" width="12.2" height="24.65" shape-rendering="crispEdges"/><rect fill="#222839" x="122" y="74.7" width="122" height="24.65" shape-rendering="crispEdges"/><rect fill="#222839" x="244" y="74.7" width="12.2" height="24.65" shape-rendering="crispEdges"/><rect fill="#0d0f15" x="256.2" y="74.7" width="12.2" height="24.65" shape-rendering="crispEdges"/><rect fill="#222839" x="268.4" y="74.7" width="12.2" height="24.65" shape-rendering="crispEdges"/><rect fill="#222839" x="280.6" y="74.7" width="97.6" height="24.65" shape-rendering="crispEdges"/><rect fill="#222839" x="378.2" y="74.7" width="12.2" height="24.65" shape-rendering="crispEdges"/><rect fill="#0d0f15" x="390.4" y="74.7" width="12.2" height="24.65" shape-rendering="crispEdges"/><rect fill="#222839" x="402.6" y="74.7" width="12.2" height="24.65" shape-rendering="crispEdges"/><rect fill="#222839" x="414.8" y="74.7" width="85.4" height="24.65" shape-rendering="crispEdges"/><rect fill="#222839" x="500.2" y="74.7" width="12.2" height="24.65" shape-rendering="crispEdges"/><rect fill="#0d0f15" x="512.4" y="74.7" width="12.2" height="24.65" shape-rendering="crispEdges"/><rect fill="#222839" x="524.6" y="74.7" width="12.2" height="24.65" shape-rendering="crispEdges"/><rect fill="#222839" x="536.8" y="74.7" width="97.6" height="24.65" shape-rendering="crispEdges"/><rect fill="#222839" x="634.4" y="74.7" width="12.2" height="24.65" shape-rendering="crispEdges"/><rect fill="#0d0f15" x="646.6" y="74.7" width="1183.4" height="24.65" shape-rendering="crispEdges"/><rect fill="#0d0f15" x="0" y="99.1" width="1830" height="24.65" shape-rendering="crispEdges"/><rect fill="#0d0f15" x="0" y="123.5" width="12.2" height="24.65" shape-rendering="crispEdges"/><rect fill="#0d0f15" x="12.2" y="123.5" width="12.2" height="24.65" shape-rendering="crispEdges"/><rect fill="#0d0f15" x="24.4" y="123.5" width="109.8" height="24.65" shape-rendering="crispEdges"/><rect fill="#0d0f15" x="134.2" y="123.5" width="512.4" height="24.65" shape-rendering="crispEdges"/><rect fill="#0d0f15" x="646.6" y="123.5" width="1171.2" height="24.65" shape-rendering="crispEdges"/><rect fill="#0d0f15" x="1817.8" y="123.5" width="12.2" height="24.65" shape-rendering="crispEdges"/><rect fill="#0d0f15" x="0" y="147.9" width="12.2" height="24.65" shape-rendering="crispEdges"/><rect fill="#0d0f15" x="12.2" y="147.9" width="12.2" height="24.65" shape-rendering="crispEdges"/><rect fill="#0d0f15" x="24.4" y="147.9" width="500.2" height="24.65" shape-rendering="crispEdges"/><rect fill="#0d0f15" x="524.6" y="147.9" width="1293.2" height="24.65" shape-rendering="crispEdges"/><rect fill="#0d0f15" x="1817.8" y="147.9" width="12.2" height="24.65" shape-rendering="crispEdges"/><rect fill="#0d0f15" x="0" y="172.3" width="12.2" height="24.65" shape-rendering="crispEdges"/><rect fill="#0d0f15" x="12.2" y="172.3" width="12.2" height="24.65" shape-rendering="crispEdges"/><rect fill="#0d0f15" x="24.4" y="172.3" width="1439.6" height="24.65" shape-rendering="crispEdges"/><rect fill="#0d0f15" x="1464" y="172.3" width="353.8" height="24.65" shape-rendering="crispEdges"/><rect fill="#0d0f15" x="1817.8" y="172.3" width="12.2" height="24.65" shape-rendering="crispEdges"/><rect fill="#0d0f15" x="0" y="196.7" width="12.2" height="24.65" shape-rendering="crispEdges"/><rect fill="#0d0f15" x="12.2" y="196.7" width="12.2" height="24.65" shape-rendering="crispEdges"/><rect fill="#0d0f15" x="24.4" y="196.7" width="219.6" height="24.65" shape-rendering="crispEdges"/><rect fill="#0d0f15" x="244" y="196.7" width="1573.8" height="24.65" shape-rendering="crispEdges"/><rect fill="#0d0f15" x="1817.8" y="196.7" width="12.2" height="24.65" shape-rendering="crispEdges"/><rect fill="#0d0f15" x="0" y="221.1" width="12.2" height="24.65" shape-rendering="crispEdges"/><rect fill="#0d0f15" x="12.2" y="221.1" width="1817.8" height="24.65" shape-rendering="crispEdges"/><rect fill="#0d0f15" x="0" y="245.5" width="12.2" height="24.65" shape-rendering="crispEdges"/><rect fill="#0d0f15" x="12.2" y="245.5" width="12.2" height="24.65" shape-rendering="crispEdges"/><rect fill="#0d0f15" x="24.4" y="245.5" width="109.8" height="24.65" shape-rendering="crispEdges"/><rect fill="#0d0f15" x="134.2" y="245.5" width="597.8" height="24.65" shape-rendering="crispEdges"/><rect fill="#0d0f15" x="732" y="245.5" width="1085.8" height="24.65" shape-rendering="crispEdges"/><rect fill="#0d0f15" x="1817.8" y="245.5" width="12.2" height="24.65" shape-rendering="crispEdges"/><rect fill="#0d0f15" x="0" y="269.9" width="12.2" height="24.65" shape-rendering="crispEdges"/><rect fill="#0d0f15" x="12.2" y="269.9" width="12.2" height="24.65" shape-rendering="crispEdges"/><rect fill="#0d0f15" x="24.4" y="269.9" width="463.6" height="24.65" shape-rendering="crispEdges"/><rect fill="#0d0f15" x="488" y="269.9" width="1329.8" height="24.65" shape-rendering="crispEdges"/><rect fill="#0d0f15" x="1817.8" y="269.9" width="12.2" height="24.65" shape-rendering="crispEdges"/><rect fill="#0d0f15" x="0" y="294.3" width="12.2" height="24.65" shape-rendering="crispEdges"/><rect fill="#0d0f15" x="12.2" y="294.3" width="12.2" height="24.65" shape-rendering="crispEdges"/><rect fill="#0d0f15" x="24.4" y="294.3" width="890.6" height="24.65" shape-rendering="crispEdges"/><rect fill="#0d0f15" x="915" y="294.3" width="902.8" height="24.65" shape-rendering="crispEdges"/><rect fill="#0d0f15" x="1817.8" y="294.3" width="12.2" height="24.65" shape-rendering="crispEdges"/><rect fill="#0d0f15" x="0" y="318.7" width="12.2" height="24.65" shape-rendering="crispEdges"/><rect fill="#0d0f15" x="12.2" y="318.7" width="1817.8" height="24.65" shape-rendering="crispEdges"/><rect fill="#0d0f15" x="0" y="343.1" width="12.2" height="24.65" shape-rendering="crispEdges"/><rect fill="#0d0f15" x="12.2" y="343.1" width="12.2" height="24.65" shape-rendering="crispEdges"/><rect fill="#0d0f15" x="24.4" y="343.1" width="109.8" height="24.65" shape-rendering="crispEdges"/><rect fill="#0d0f15" x="134.2" y="343.1" width="341.6" height="24.65" shape-rendering="crispEdges"/><rect fill="#0d0f15" x="475.8" y="343.1" width="1342" height="24.65" shape-rendering="crispEdges"/><rect fill="#0d0f15" x="1817.8" y="343.1" width="12.2" height="24.65" shape-rendering="crispEdges"/><rect fill="#0d0f15" x="0" y="367.5" width="12.2" height="24.65" shape-rendering="crispEdges"/><rect fill="#0d0f15" x="12.2" y="367.5" width="12.2" height="24.65" shape-rendering="crispEdges"/><rect fill="#0d0f15" x="24.4" y="367.5" width="183" height="24.65" shape-rendering="crispEdges"/><rect fill="#0d0f15" x="207.4" y="367.5" width="1610.4" height="24.65" shape-rendering="crispEdges"/><rect fill="#0d0f15" x="1817.8" y="367.5" width="12.2" height="24.65" shape-rendering="crispEdges"/><rect fill="#0d0f15" x="0" y="391.9" width="12.2" height="24.65" shape-rendering="crispEdges"/><rect fill="#0d0f15" x="12.2" y="391.9" width="12.2" height="24.65" shape-rendering="crispEdges"/><rect fill="#0d0f15" x="24.4" y="391.9" width="1220" height="24.65" shape-rendering="crispEdges"/><rect fill="#0d0f15" x="1244.4" y="391.9" width="573.4" height="24.65" shape-rendering="crispEdges"/><rect fill="#0d0f15" x="1817.8" y="391.9" width="12.2" height="24.65" shape-rendering="crispEdges"/><rect fill="#0d0f15" x="0" y="416.3" width="12.2" height="24.65" shape-rendering="crispEdges"/><rect fill="#0d0f15" x="12.2" y="416.3" width="1817.8" height="24.65" shape-rendering="crispEdges"/><rect fill="#0d0f15" x="0" y="440.7" width="12.2" height="24.65" shape-rendering="crispEdges"/><rect fill="#0d0f15" x="12.2" y="440.7" width="12.2" height="24.65" shape-rendering="crispEdges"/><rect fill="#0d0f15" x="24.4" y="440.7" width="109.8" height="24.65" shape-rendering="crispEdges"/><rect fill="#0d0f15" x="134.2" y="440.7" width="353.8" height="24.65" shape-rendering="crispEdges"/><rect fill="#0d0f15" x="488" y="440.7" width="1329.8" height="24.65" shape-rendering="crispEdges"/><rect fill="#0d0f15" x="1817.8" y="440.7" width="12.2" height="24.65" shape-rendering="crispEdges"/><rect fill="#0d0f15" x="0" y="465.1" width="12.2" height="24.65" shape-rendering="crispEdges"/><rect fill="#0d0f15" x="12.2" y="465.1" width="12.2" height="24.65" shape-rendering="crispEdges"/><rect fill="#0d0f15" x="24.4" y="465.1" width="195.2" height="24.65" shape-rendering="crispEdges"/><rect fill="#0d0f15" x="219.6" y="465.1" width="1598.2" height="24.65" shape-rendering="crispEdges"/><rect fill="#0d0f15" x="1817.8" y="465.1" width="12.2" height="24.65" shape-rendering="crispEdges"/><rect fill="#0d0f15" x="0" y="489.5" width="12.2" height="24.65" shape-rendering="crispEdges"/><rect fill="#0d0f15" x="12.2" y="489.5" width="12.2" height="24.65" shape-rendering="crispEdges"/><rect fill="#0d0f15" x="24.4" y="489.5" width="732" height="24.65" shape-rendering="crispEdges"/><rect fill="#0d0f15" x="756.4" y="489.5" width="1061.4" height="24.65" shape-rendering="crispEdges"/><rect fill="#0d0f15" x="1817.8" y="489.5" width="12.2" height="24.65" shape-rendering="crispEdges"/><rect fill="#0d0f15" x="0" y="513.9" width="12.2" height="24.65" shape-rendering="crispEdges"/><rect fill="#0d0f15" x="12.2" y="513.9" width="1817.8" height="24.65" shape-rendering="crispEdges"/><rect fill="#0d0f15" x="0" y="538.3" width="12.2" height="24.65" shape-rendering="crispEdges"/><rect fill="#0d0f15" x="12.2" y="538.3" width="1817.8" height="24.65" shape-rendering="crispEdges"/><rect fill="#0d0f15" x="0" y="562.7" width="12.2" height="24.65" shape-rendering="crispEdges"/><rect fill="#0d0f15" x="12.2" y="562.7" width="1817.8" height="24.65" shape-rendering="crispEdges"/><rect fill="#0d0f15" x="0" y="587.1" width="12.2" height="24.65" shape-rendering="crispEdges"/><rect fill="#0d0f15" x="12.2" y="587.1" width="1817.8" height="24.65" shape-rendering="crispEdges"/><rect fill="#0d0f15" x="0" y="611.5" width="12.2" height="24.65" shape-rendering="crispEdges"/><rect fill="#0d0f15" x="12.2" y="611.5" width="1817.8" height="24.65" shape-rendering="crispEdges"/><rect fill="#0d0f15" x="0" y="635.9" width="12.2" height="24.65" shape-rendering="crispEdges"/><rect fill="#0d0f15" x="12.2" y="635.9" width="1817.8" height="24.65" shape-rendering="crispEdges"/><rect fill="#0d0f15" x="0" y="660.3" width="12.2" height="24.65" shape-rendering="crispEdges"/><rect fill="#0d0f15" x="12.2" y="660.3" width="1817.8" height="24.65" shape-rendering="crispEdges"/><rect fill="#0d0f15" x="0" y="684.7" width="12.2" height="24.65" shape-rendering="crispEdges"/><rect fill="#0d0f15" x="12.2" y="684.7" width="1817.8" height="24.65" shape-rendering="crispEdges"/><rect fill="#0d0f15" x="0" y="709.1" width="12.2" height="24.65" shape-rendering="crispEdges"/><rect fill="#0d0f15" x="12.2" y="709.1" width="1817.8" height="24.65" shape-rendering="crispEdges"/><rect fill="#0d0f15" x="0" y="733.5" width="12.2" height="24.65" shape-rendering="crispEdges"/><rect fill="#0d0f15" x="12.2" y="733.5" width="1817.8" height="24.65" shape-rendering="crispEdges"/><rect fill="#0d0f15" x="0" y="757.9" width="12.2" height="24.65" shape-rendering="crispEdges"/><rect fill="#0d0f15" x="12.2" y="757.9" width="1817.8" height="24.65" shape-rendering="crispEdges"/><rect fill="#0d0f15" x="0" y="782.3" width="12.2" height="24.65" shape-rendering="crispEdges"/><rect fill="#0d0f15" x="12.2" y="782.3" width="1817.8" height="24.65" shape-rendering="crispEdges"/><rect fill="#0d0f15" x="0" y="806.7" width="12.2" height="24.65" shape-rendering="crispEdges"/><rect fill="#0d0f15" x="12.2" y="806.7" width="1817.8" height="24.65" shape-rendering="crispEdges"/><rect fill="#0d0f15" x="0" y="831.1" width="12.2" height="24.65" shape-rendering="crispEdges"/><rect fill="#0d0f15" x="12.2" y="831.1" width="1817.8" height="24.65" shape-rendering="crispEdges"/><rect fill="#0d0f15" x="0" y="855.5" width="12.2" height="24.65" shape-rendering="crispEdges"/><rect fill="#0d0f15" x="12.2" y="855.5" width="1817.8" height="24.65" shape-rendering="crispEdges"/><rect fill="#0d0f15" x="0" y="879.9" width="12.2" height="24.65" shape-rendering="crispEdges"/><rect fill="#0d0f15" x="12.2" y="879.9" width="1817.8" height="24.65" shape-rendering="crispEdges"/><rect fill="#0d0f15" x="0" y="904.3" width="12.2" height="24.65" shape-rendering="crispEdges"/><rect fill="#0d0f15" x="12.2" y="904.3" width="1817.8" height="24.65" shape-rendering="crispEdges"/><rect fill="#0d0f15" x="0" y="928.7" width="12.2" height="24.65" shape-rendering="crispEdges"/><rect fill="#0d0f15" x="12.2" y="928.7" width="1817.8" height="24.65" shape-rendering="crispEdges"/><rect fill="#0d0f15" x="0" y="953.1" width="12.2" height="24.65" shape-rendering="crispEdges"/><rect fill="#0d0f15" x="12.2" y="953.1" width="1817.8" height="24.65" shape-rendering="crispEdges"/><rect fill="#0d0f15" x="0" y="977.5" width="12.2" height="24.65" shape-rendering="crispEdges"/><rect fill="#0d0f15" x="12.2" y="977.5" width="1817.8" height="24.65" shape-rendering="crispEdges"/><rect fill="#0d0f15" x="0" y="1001.9" width="12.2" height="24.65" shape-rendering="crispEdges"/><rect fill="#0d0f15" x="12.2" y="1001.9" width="1817.8" height="24.65" shape-rendering="crispEdges"/><rect fill="#0d0f15" x="0" y="1026.3" width="12.2" height="24.65" shape-rendering="crispEdges"/><rect fill="#0d0f15" x="12.2" y="1026.3" width="1817.8" height="24.65" shape-rendering="crispEdges"/><rect fill="#080a10" x="0" y="1050.7" width="24.4" height="24.65" shape-rendering="crispEdges"/><rect fill="#080a10" x="24.4" y="1050.7" width="24.4" height="24.65" shape-rendering="crispEdges"/><rect fill="#080a10" x="48.8" y="1050.7" width="12.2" height="24.65" shape-rendering="crispEdges"/><rect fill="#080a10" x="61" y="1050.7" width="170.8" height="24.65" shape-rendering="crispEdges"/><rect fill="#080a10" x="231.8" y="1050.7" width="48.8" height="24.65" shape-rendering="crispEdges"/><rect fill="#080a10" x="280.6" y="1050.7" width="48.8" height="24.65" shape-rendering="crispEdges"/><rect fill="#080a10" x="329.4" y="1050.7" width="12.2" height="24.65" shape-rendering="crispEdges"/><rect fill="#080a10" x="341.6" y="1050.7" width="109.8" height="24.65" shape-rendering="crispEdges"/><rect fill="#080a10" x="451.4" y="1050.7" width="48.8" height="24.65" shape-rendering="crispEdges"/><rect fill="#080a10" x="500.2" y="1050.7" width="61" height="24.65" shape-rendering="crispEdges"/><rect fill="#080a10" x="561.2" y="1050.7" width="12.2" height="24.65" shape-rendering="crispEdges"/><rect fill="#080a10" x="573.4" y="1050.7" width="146.4" height="24.65" shape-rendering="crispEdges"/><rect fill="#080a10" x="719.8" y="1050.7" width="48.8" height="24.65" shape-rendering="crispEdges"/><rect fill="#080a10" x="768.6" y="1050.7" width="36.6" height="24.65" shape-rendering="crispEdges"/><rect fill="#080a10" x="805.2" y="1050.7" width="12.2" height="24.65" shape-rendering="crispEdges"/><rect fill="#080a10" x="817.4" y="1050.7" width="61" height="24.65" shape-rendering="crispEdges"/><rect fill="#080a10" x="878.4" y="1050.7" width="48.8" height="24.65" shape-rendering="crispEdges"/><rect fill="#080a10" x="927.2" y="1050.7" width="36.6" height="24.65" shape-rendering="crispEdges"/><rect fill="#080a10" x="963.8" y="1050.7" width="12.2" height="24.65" shape-rendering="crispEdges"/><rect fill="#080a10" x="976" y="1050.7" width="183" height="24.65" shape-rendering="crispEdges"/><rect fill="#080a10" x="1159" y="1050.7" width="48.8" height="24.65" shape-rendering="crispEdges"/><rect fill="#080a10" x="1207.8" y="1050.7" width="36.6" height="24.65" shape-rendering="crispEdges"/><rect fill="#080a10" x="1244.4" y="1050.7" width="12.2" height="24.65" shape-rendering="crispEdges"/><rect fill="#080a10" x="1256.6" y="1050.7" width="158.6" height="24.65" shape-rendering="crispEdges"/><rect fill="#080a10" x="1415.2" y="1050.7" width="48.8" height="24.65" shape-rendering="crispEdges"/><rect fill="#080a10" x="1464" y="1050.7" width="24.4" height="24.65" shape-rendering="crispEdges"/><rect fill="#080a10" x="1488.4" y="1050.7" width="12.2" height="24.65" shape-rendering="crispEdges"/><rect fill="#080a10" x="1500.6" y="1050.7" width="73.2" height="24.65" shape-rendering="crispEdges"/><rect fill="#080a10" x="1573.8" y="1050.7" width="48.8" height="24.65" shape-rendering="crispEdges"/><rect fill="#080a10" x="1622.6" y="1050.7" width="24.4" height="24.65" shape-rendering="crispEdges"/><rect fill="#080a10" x="1647" y="1050.7" width="12.2" height="24.65" shape-rendering="crispEdges"/><rect fill="#080a10" x="1659.2" y="1050.7" width="109.8" height="24.65" shape-rendering="crispEdges"/><rect fill="#080a10" x="1769" y="1050.7" width="36.6" height="24.65" shape-rendering="crispEdges"/><rect fill="#080a10" x="1805.6" y="1050.7" width="24.4" height="24.65" shape-rendering="crispEdges"/>
    <g class="terminal-1632591726-matrix">
    <text class="terminal-1632591726-r2" x="24.4" y="20" textLength="24.4" clip-path="url(#terminal-1632591726-line-0)">▍&#160;</text><text class="terminal-1632591726-r3" x="48.8" y="20" textLength="36.6" clip-path="url(#terminal-1632591726-line-0)">NEX</text><text class="terminal-1632591726-r3" x="122" y="20" textLength="73.2" clip-path="url(#terminal-1632591726-line-0)">РАЗБОР</text><text class="terminal-1632591726-r5" x="231.8" y="20" textLength="146.4" clip-path="url(#terminal-1632591726-line-0)">исследование</text><text class="terminal-1632591726-r5" x="451.4" y="20" textLength="780.8" clip-path="url(#terminal-1632591726-line-0)">участок&#160;slotclash&#160;&#160;&#160;·&#160;&#160;&#160;13&#160;оп.&#160;&#160;&#160;·&#160;&#160;&#160;e2k-v6-measured&#160;&#160;&#160;·&#160;&#160;&#160;24→23</text><text class="terminal-1632591726-r1" x="1830" y="20" textLength="12.2" clip-path="url(#terminal-1632591726-line-0)">
</text><text class="terminal-1632591726-r6" x="12.2" y="44.4" textLength="85.4" clip-path="url(#terminal-1632591726-line-1)">ДИАГНОЗ</text><text class="terminal-1632591726-r1" x="1830" y="44.4" textLength="12.2" clip-path="url(#terminal-1632591726-line-1)">
</text><text class="terminal-1632591726-r5" x="24.4" y="68.8" textLength="85.4" clip-path="url(#terminal-1632591726-line-2)">◀&#160;пред.</text><text class="terminal-1632591726-r5" x="134.2" y="68.8" textLength="85.4" clip-path="url(#terminal-1632591726-line-2)">след.&#160;▶</text><text class="terminal-1632591726-r5" x="244" y="68.8" textLength="158.6" clip-path="url(#terminal-1632591726-line-2)">сброс&#160;фильтра</text><text class="terminal-1632591726-r5" x="427" y="68.8" textLength="109.8" clip-path="url(#terminal-1632591726-line-2)">решётка&#160;▶</text><text class="terminal-1632591726-r1" x="1830" y="68.8" textLength="12.2" clip-path="url(#terminal-1632591726-line-2)">
</text><text class="terminal-1632591726-r6" x="24.4" y="93.2" textLength="61" clip-path="url(#terminal-1632591726-line-3)">все&#160;4</text><text class="terminal-1632591726-r5" x="122" y="93.2" textLength="122" clip-path="url(#terminal-1632591726-line-3)">критично&#160;0</text><text class="terminal-1632591726-r5" x="280.6" y="93.2" textLength="97.6" clip-path="url(#terminal-1632591726-line-3)">средне&#160;0</text><text class="terminal-1632591726-r5" x="414.8" y="93.2" textLength="85.4" clip-path="url(#terminal-1632591726-line-3)">мелко&#160;2</text><text class="terminal-1632591726-r5" x="536.8" y="93.2" textLength="97.6" clip-path="url(#terminal-1632591726-line-3)">предел&#160;2</text><text class="terminal-1632591726-r1" x="1830" y="93.2" textLength="12.2" clip-path="url(#terminal-1632591726-line-3)">
</text><text class="terminal-1632591726-r1" x="1830" y="117.6" textLength="12.2" clip-path="url(#terminal-1632591726-line-4)">
</text><text class="terminal-1632591726-r5" x="24.4" y="142" textLength="109.8" clip-path="url(#terminal-1632591726-line-5)">·&#160;&#160;−1&#160;т.&#160;</text><text class="terminal-1632591726-r4" x="134.2" y="142" textLength="512.4" clip-path="url(#terminal-1632591726-line-5)">монопольный&#160;порт&#160;,5&#160;занят&#160;менее&#160;срочной&#160;z0</text><text class="terminal-1632591726-r1" x="1830" y="142" textLength="12.2" clip-path="url(#terminal-1632591726-line-5)">
</text><text class="terminal-1632591726-r5" x="24.4" y="166.4" textLength="500.2" clip-path="url(#terminal-1632591726-line-6)">&#160;&#160;&#160;&#160;&#160;dc&#160;готова&#160;в&#160;т.1,&#160;выдана&#160;только&#160;в&#160;т.2</text><text class="terminal-1632591726-r1" x="1830" y="166.4" textLength="12.2" clip-path="url(#terminal-1632591726-line-6)">
</text><text class="terminal-1632591726-r5" x="24.4" y="190.8" textLength="1439.6" clip-path="url(#terminal-1632591726-line-7)">&#160;&#160;&#160;&#160;&#160;порт&#160;,5&#160;—&#160;единственный&#160;исполнитель&#160;DIV;&#160;его&#160;1&#160;т.&#160;занимала&#160;z0&#160;(DIV,&#160;остаток&#160;пути&#160;16),&#160;пока&#160;ждала&#160;dc&#160;(остаток&#160;22)&#160;—</text><text class="terminal-1632591726-r1" x="1830" y="190.8" textLength="12.2" clip-path="url(#terminal-1632591726-line-7)">
</text><text class="terminal-1632591726-r5" x="24.4" y="215.2" textLength="219.6" clip-path="url(#terminal-1632591726-line-8)">&#160;&#160;&#160;&#160;&#160;более&#160;срочная</text><text class="terminal-1632591726-r1" x="1830" y="215.2" textLength="12.2" clip-path="url(#terminal-1632591726-line-8)">
</text><text class="terminal-1632591726-r1" x="1830" y="239.6" textLength="12.2" clip-path="url(#terminal-1632591726-line-9)">
</text><text class="terminal-1632591726-r5" x="24.4" y="264" textLength="109.8" clip-path="url(#terminal-1632591726-line-10)">·&#160;&#160;−1&#160;т.&#160;</text><text class="terminal-1632591726-r4" x="134.2" y="264" textLength="597.8" clip-path="url(#terminal-1632591726-line-10)">расписание&#160;на&#160;1&#160;т.&#160;длиннее&#160;теоретического&#160;предела</text><text class="terminal-1632591726-r1" x="1830" y="264" textLength="12.2" clip-path="url(#terminal-1632591726-line-10)">
</text><text class="terminal-1632591726-r5" x="24.4" y="288.4" textLength="463.6" clip-path="url(#terminal-1632591726-line-11)">&#160;&#160;&#160;&#160;&#160;24&#160;т.&#160;против&#160;нижней&#160;границы&#160;23&#160;т.</text><text class="terminal-1632591726-r1" x="1830" y="288.4" textLength="12.2" clip-path="url(#terminal-1632591726-line-11)">
</text><text class="terminal-1632591726-r5" x="24.4" y="312.8" textLength="890.6" clip-path="url(#terminal-1632591726-line-12)">&#160;&#160;&#160;&#160;&#160;предел&#160;задаёт&#160;и&#160;то,&#160;и&#160;другое&#160;—&#160;критический&#160;путь&#160;23&#160;т.,&#160;ресурсы&#160;23&#160;т.</text><text class="terminal-1632591726-r1" x="1830" y="312.8" textLength="12.2" clip-path="url(#terminal-1632591726-line-12)">
</text><text class="terminal-1632591726-r1" x="1830" y="337.2" textLength="12.2" clip-path="url(#terminal-1632591726-line-13)">
</text><text class="terminal-1632591726-r5" x="24.4" y="361.6" textLength="109.8" clip-path="url(#terminal-1632591726-line-14)">=&#160;&#160;−8&#160;т.&#160;</text><text class="terminal-1632591726-r4" x="134.2" y="361.6" textLength="341.6" clip-path="url(#terminal-1632591726-line-14)">простой&#160;8&#160;т.&#160;подряд&#160;(т.3–10)</text><text class="terminal-1632591726-r1" x="1830" y="361.6" textLength="12.2" clip-path="url(#terminal-1632591726-line-14)">
</text><text class="terminal-1632591726-r5" x="24.4" y="386" textLength="183" clip-path="url(#terminal-1632591726-line-15)">&#160;&#160;&#160;&#160;&#160;такты&#160;3–10</text><text class="terminal-1632591726-r1" x="1830" y="386" textLength="12.2" clip-path="url(#terminal-1632591726-line-15)">
</text><text class="terminal-1632591726-r5" x="24.4" y="410.4" textLength="1220" clip-path="url(#terminal-1632591726-line-16)">&#160;&#160;&#160;&#160;&#160;все&#160;подходящие&#160;порты&#160;заняты&#160;длинными&#160;операциями&#160;(dc),&#160;а&#160;готовой&#160;работы&#160;для&#160;свободных&#160;портов&#160;нет</text><text class="terminal-1632591726-r1" x="1830" y="410.4" textLength="12.2" clip-path="url(#terminal-1632591726-line-16)">
</text><text class="terminal-1632591726-r1" x="1830" y="434.8" textLength="12.2" clip-path="url(#terminal-1632591726-line-17)">
</text><text class="terminal-1632591726-r5" x="24.4" y="459.2" textLength="109.8" clip-path="url(#terminal-1632591726-line-18)">=&#160;&#160;−3&#160;т.&#160;</text><text class="terminal-1632591726-r4" x="134.2" y="459.2" textLength="353.8" clip-path="url(#terminal-1632591726-line-18)">простой&#160;3&#160;т.&#160;подряд&#160;(т.14–16)</text><text class="terminal-1632591726-r1" x="1830" y="459.2" textLength="12.2" clip-path="url(#terminal-1632591726-line-18)">
</text><text class="terminal-1632591726-r5" x="24.4" y="483.6" textLength="195.2" clip-path="url(#terminal-1632591726-line-19)">&#160;&#160;&#160;&#160;&#160;такты&#160;14–16</text><text class="terminal-1632591726-r1" x="1830" y="483.6" textLength="12.2" clip-path="url(#terminal-1632591726-line-19)">
</text><text class="terminal-1632591726-r5" x="24.4" y="508" textLength="732" clip-path="url(#terminal-1632591726-line-20)">&#160;&#160;&#160;&#160;&#160;ни&#160;одна&#160;операция&#160;не&#160;готова:&#160;ждём&#160;результатов&#160;предыдущих</text><text class="terminal-1632591726-r1" x="1830" y="508" textLength="12.2" clip-path="url(#terminal-1632591726-line-20)">
</text><text class="terminal-1632591726-r1" x="1830" y="532.4" textLength="12.2" clip-path="url(#terminal-1632591726-line-21)">
</text><text class="terminal-1632591726-r1" x="1830" y="556.8" textLength="12.2" clip-path="url(#terminal-1632591726-line-22)">
</text><text class="terminal-1632591726-r1" x="1830" y="581.2" textLength="12.2" clip-path="url(#terminal-1632591726-line-23)">
</text><text class="terminal-1632591726-r1" x="1830" y="605.6" textLength="12.2" clip-path="url(#terminal-1632591726-line-24)">
</text><text class="terminal-1632591726-r1" x="1830" y="630" textLength="12.2" clip-path="url(#terminal-1632591726-line-25)">
</text><text class="terminal-1632591726-r1" x="1830" y="654.4" textLength="12.2" clip-path="url(#terminal-1632591726-line-26)">
</text><text class="terminal-1632591726-r1" x="1830" y="678.8" textLength="12.2" clip-path="url(#terminal-1632591726-line-27)">
</text><text class="terminal-1632591726-r1" x="1830" y="703.2" textLength="12.2" clip-path="url(#terminal-1632591726-line-28)">
</text><text class="terminal-1632591726-r1" x="1830" y="727.6" textLength="12.2" clip-path="url(#terminal-1632591726-line-29)">
</text><text class="terminal-1632591726-r1" x="1830" y="752" textLength="12.2" clip-path="url(#terminal-1632591726-line-30)">
</text><text class="terminal-1632591726-r1" x="1830" y="776.4" textLength="12.2" clip-path="url(#terminal-1632591726-line-31)">
</text><text class="terminal-1632591726-r1" x="1830" y="800.8" textLength="12.2" clip-path="url(#terminal-1632591726-line-32)">
</text><text class="terminal-1632591726-r1" x="1830" y="825.2" textLength="12.2" clip-path="url(#terminal-1632591726-line-33)">
</text><text class="terminal-1632591726-r1" x="1830" y="849.6" textLength="12.2" clip-path="url(#terminal-1632591726-line-34)">
</text><text class="terminal-1632591726-r1" x="1830" y="874" textLength="12.2" clip-path="url(#terminal-1632591726-line-35)">
</text><text class="terminal-1632591726-r1" x="1830" y="898.4" textLength="12.2" clip-path="url(#terminal-1632591726-line-36)">
</text><text class="terminal-1632591726-r1" x="1830" y="922.8" textLength="12.2" clip-path="url(#terminal-1632591726-line-37)">
</text><text class="terminal-1632591726-r1" x="1830" y="947.2" textLength="12.2" clip-path="url(#terminal-1632591726-line-38)">
</text><text class="terminal-1632591726-r1" x="1830" y="971.6" textLength="12.2" clip-path="url(#terminal-1632591726-line-39)">
</text><text class="terminal-1632591726-r1" x="1830" y="996" textLength="12.2" clip-path="url(#terminal-1632591726-line-40)">
</text><text class="terminal-1632591726-r1" x="1830" y="1020.4" textLength="12.2" clip-path="url(#terminal-1632591726-line-41)">
</text><text class="terminal-1632591726-r1" x="1830" y="1044.8" textLength="12.2" clip-path="url(#terminal-1632591726-line-42)">
</text><text class="terminal-1632591726-r7" x="24.4" y="1069.2" textLength="24.4" clip-path="url(#terminal-1632591726-line-43)">F2</text><text class="terminal-1632591726-r8" x="61" y="1069.2" textLength="170.8" clip-path="url(#terminal-1632591726-line-43)">решётка&#160;⇄&#160;ввод</text><text class="terminal-1632591726-r7" x="280.6" y="1069.2" textLength="48.8" clip-path="url(#terminal-1632591726-line-43)">↑↓←→</text><text class="terminal-1632591726-r8" x="341.6" y="1069.2" textLength="109.8" clip-path="url(#terminal-1632591726-line-43)">по&#160;тактам</text><text class="terminal-1632591726-r7" x="500.2" y="1069.2" textLength="61" clip-path="url(#terminal-1632591726-line-43)">Enter</text><text class="terminal-1632591726-r8" x="573.4" y="1069.2" textLength="146.4" clip-path="url(#terminal-1632591726-line-43)">разбор&#160;такта</text><text class="terminal-1632591726-r7" x="768.6" y="1069.2" textLength="36.6" clip-path="url(#terminal-1632591726-line-43)">Esc</text><text class="terminal-1632591726-r8" x="817.4" y="1069.2" textLength="61" clip-path="url(#terminal-1632591726-line-43)">назад</text><text class="terminal-1632591726-r7" x="927.2" y="1069.2" textLength="36.6" clip-path="url(#terminal-1632591726-line-43)">Esc</text><text class="terminal-1632591726-r8" x="976" y="1069.2" textLength="183" clip-path="url(#terminal-1632591726-line-43)">свернуть&#160;панель</text><text class="terminal-1632591726-r7" x="1207.8" y="1069.2" textLength="36.6" clip-path="url(#terminal-1632591726-line-43)">Tab</text><text class="terminal-1632591726-r8" x="1256.6" y="1069.2" textLength="158.6" clip-path="url(#terminal-1632591726-line-43)">справочник&#160;ИИ</text><text class="terminal-1632591726-r7" x="1464" y="1069.2" textLength="24.4" clip-path="url(#terminal-1632591726-line-43)">^B</text><text class="terminal-1632591726-r8" x="1500.6" y="1069.2" textLength="73.2" clip-path="url(#terminal-1632591726-line-43)">панель</text><text class="terminal-1632591726-r7" x="1622.6" y="1069.2" textLength="24.4" clip-path="url(#terminal-1632591726-line-43)">^T</text><text class="terminal-1632591726-r8" x="1659.2" y="1069.2" textLength="109.8" clip-path="url(#terminal-1632591726-line-43)">подсказки</text>
    </g>
    </g>
</svg>
